<?xml version="1.0" encoding="utf-8" standalone="no"?>
<!DOCTYPE svg PUBLIC "-//W3C//DTD SVG 1.1//EN"
  "http://www.w3.org/Graphics/SVG/1.1/DTD/svg11.dtd">
<svg xmlns:xlink="http://www.w3.org/1999/xlink" width="473.596875pt" height="497.249844pt" viewBox="0 0 473.596875 497.249844" xmlns="http://www.w3.org/2000/svg" version="1.1">
 <metadata>
  <rdf:RDF xmlns:dc="http://purl.org/dc/elements/1.1/" xmlns:cc="http://creativecommons.org/ns#" xmlns:rdf="http://www.w3.org/1999/02/22-rdf-syntax-ns#">
   <cc:Work>
    <dc:type rdf:resource="http://purl.org/dc/dcmitype/StillImage"/>
    <dc:date>2026-05-15T23:52:00.302218</dc:date>
    <dc:format>image/svg+xml</dc:format>
    <dc:creator>
     <cc:Agent>
      <dc:title>Matplotlib v3.10.8, https://matplotlib.org/</dc:title>
     </cc:Agent>
    </dc:creator>
   </cc:Work>
  </rdf:RDF>
 </metadata>
 <defs>
  <style type="text/css">*{stroke-linejoin: round; stroke-linecap: butt}</style>
 </defs>
 <g id="figure_1">
  <g id="patch_1">
   <path d="M 0 497.249844 
L 473.596875 497.249844 
L 473.596875 0 
L 0 0 
z
" style="fill: #ffffff"/>
  </g>
  <g id="axes_1">
   <g id="patch_2">
    <path d="M 45.716875 457.757969 
L 466.396875 457.757969 
L 466.396875 37.077969 
L 45.716875 37.077969 
z
" style="fill: #ffffff"/>
   </g>
   <g id="matplotlib.axis_1">
    <g id="xtick_1">
     <g id="line2d_1">
      <path d="M 53.806875 457.757969 
L 53.806875 37.077969 
" clip-path="url(#p477dba0201)" style="fill: none; stroke-dasharray: 0.8,1.32; stroke-dashoffset: 0; stroke: #dddddd; stroke-opacity: 0.6; stroke-width: 0.8"/>
     </g>
     <g id="line2d_2">
      <defs>
       <path id="m767486af5d" d="M 0 0 
L 0 3.5 
" style="stroke: #000000; stroke-width: 0.8"/>
      </defs>
      <g>
       <use xlink:href="#m767486af5d" x="53.806875" y="457.757969" style="stroke: #000000; stroke-width: 0.8"/>
      </g>
     </g>
     <g id="text_1">
      <!-- 0.0 -->
      <g transform="translate(45.855313 472.356406) scale(0.1 -0.1)">
       <defs>
        <path id="DejaVuSans-30" d="M 2034 4250 
Q 1547 4250 1301 3770 
Q 1056 3291 1056 2328 
Q 1056 1369 1301 889 
Q 1547 409 2034 409 
Q 2525 409 2770 889 
Q 3016 1369 3016 2328 
Q 3016 3291 2770 3770 
Q 2525 4250 2034 4250 
z
M 2034 4750 
Q 2819 4750 3233 4129 
Q 3647 3509 3647 2328 
Q 3647 1150 3233 529 
Q 2819 -91 2034 -91 
Q 1250 -91 836 529 
Q 422 1150 422 2328 
Q 422 3509 836 4129 
Q 1250 4750 2034 4750 
z
" transform="scale(0.015625)"/>
        <path id="DejaVuSans-2e" d="M 684 794 
L 1344 794 
L 1344 0 
L 684 0 
L 684 794 
z
" transform="scale(0.015625)"/>
       </defs>
       <use xlink:href="#DejaVuSans-30"/>
       <use xlink:href="#DejaVuSans-2e" transform="translate(63.623047 0)"/>
       <use xlink:href="#DejaVuSans-30" transform="translate(95.410156 0)"/>
      </g>
     </g>
    </g>
    <g id="xtick_2">
     <g id="line2d_3">
      <path d="M 134.706875 457.757969 
L 134.706875 37.077969 
" clip-path="url(#p477dba0201)" style="fill: none; stroke-dasharray: 0.8,1.32; stroke-dashoffset: 0; stroke: #dddddd; stroke-opacity: 0.6; stroke-width: 0.8"/>
     </g>
     <g id="line2d_4">
      <g>
       <use xlink:href="#m767486af5d" x="134.706875" y="457.757969" style="stroke: #000000; stroke-width: 0.8"/>
      </g>
     </g>
     <g id="text_2">
      <!-- 0.2 -->
      <g transform="translate(126.755313 472.356406) scale(0.1 -0.1)">
       <defs>
        <path id="DejaVuSans-32" d="M 1228 531 
L 3431 531 
L 3431 0 
L 469 0 
L 469 531 
Q 828 903 1448 1529 
Q 2069 2156 2228 2338 
Q 2531 2678 2651 2914 
Q 2772 3150 2772 3378 
Q 2772 3750 2511 3984 
Q 2250 4219 1831 4219 
Q 1534 4219 1204 4116 
Q 875 4013 500 3803 
L 500 4441 
Q 881 4594 1212 4672 
Q 1544 4750 1819 4750 
Q 2544 4750 2975 4387 
Q 3406 4025 3406 3419 
Q 3406 3131 3298 2873 
Q 3191 2616 2906 2266 
Q 2828 2175 2409 1742 
Q 1991 1309 1228 531 
z
" transform="scale(0.015625)"/>
       </defs>
       <use xlink:href="#DejaVuSans-30"/>
       <use xlink:href="#DejaVuSans-2e" transform="translate(63.623047 0)"/>
       <use xlink:href="#DejaVuSans-32" transform="translate(95.410156 0)"/>
      </g>
     </g>
    </g>
    <g id="xtick_3">
     <g id="line2d_5">
      <path d="M 215.606875 457.757969 
L 215.606875 37.077969 
" clip-path="url(#p477dba0201)" style="fill: none; stroke-dasharray: 0.8,1.32; stroke-dashoffset: 0; stroke: #dddddd; stroke-opacity: 0.6; stroke-width: 0.8"/>
     </g>
     <g id="line2d_6">
      <g>
       <use xlink:href="#m767486af5d" x="215.606875" y="457.757969" style="stroke: #000000; stroke-width: 0.8"/>
      </g>
     </g>
     <g id="text_3">
      <!-- 0.4 -->
      <g transform="translate(207.655313 472.356406) scale(0.1 -0.1)">
       <defs>
        <path id="DejaVuSans-34" d="M 2419 4116 
L 825 1625 
L 2419 1625 
L 2419 4116 
z
M 2253 4666 
L 3047 4666 
L 3047 1625 
L 3713 1625 
L 3713 1100 
L 3047 1100 
L 3047 0 
L 2419 0 
L 2419 1100 
L 313 1100 
L 313 1709 
L 2253 4666 
z
" transform="scale(0.015625)"/>
       </defs>
       <use xlink:href="#DejaVuSans-30"/>
       <use xlink:href="#DejaVuSans-2e" transform="translate(63.623047 0)"/>
       <use xlink:href="#DejaVuSans-34" transform="translate(95.410156 0)"/>
      </g>
     </g>
    </g>
    <g id="xtick_4">
     <g id="line2d_7">
      <path d="M 296.506875 457.757969 
L 296.506875 37.077969 
" clip-path="url(#p477dba0201)" style="fill: none; stroke-dasharray: 0.8,1.32; stroke-dashoffset: 0; stroke: #dddddd; stroke-opacity: 0.6; stroke-width: 0.8"/>
     </g>
     <g id="line2d_8">
      <g>
       <use xlink:href="#m767486af5d" x="296.506875" y="457.757969" style="stroke: #000000; stroke-width: 0.8"/>
      </g>
     </g>
     <g id="text_4">
      <!-- 0.6 -->
      <g transform="translate(288.555312 472.356406) scale(0.1 -0.1)">
       <defs>
        <path id="DejaVuSans-36" d="M 2113 2584 
Q 1688 2584 1439 2293 
Q 1191 2003 1191 1497 
Q 1191 994 1439 701 
Q 1688 409 2113 409 
Q 2538 409 2786 701 
Q 3034 994 3034 1497 
Q 3034 2003 2786 2293 
Q 2538 2584 2113 2584 
z
M 3366 4563 
L 3366 3988 
Q 3128 4100 2886 4159 
Q 2644 4219 2406 4219 
Q 1781 4219 1451 3797 
Q 1122 3375 1075 2522 
Q 1259 2794 1537 2939 
Q 1816 3084 2150 3084 
Q 2853 3084 3261 2657 
Q 3669 2231 3669 1497 
Q 3669 778 3244 343 
Q 2819 -91 2113 -91 
Q 1303 -91 875 529 
Q 447 1150 447 2328 
Q 447 3434 972 4092 
Q 1497 4750 2381 4750 
Q 2619 4750 2861 4703 
Q 3103 4656 3366 4563 
z
" transform="scale(0.015625)"/>
       </defs>
       <use xlink:href="#DejaVuSans-30"/>
       <use xlink:href="#DejaVuSans-2e" transform="translate(63.623047 0)"/>
       <use xlink:href="#DejaVuSans-36" transform="translate(95.410156 0)"/>
      </g>
     </g>
    </g>
    <g id="xtick_5">
     <g id="line2d_9">
      <path d="M 377.406875 457.757969 
L 377.406875 37.077969 
" clip-path="url(#p477dba0201)" style="fill: none; stroke-dasharray: 0.8,1.32; stroke-dashoffset: 0; stroke: #dddddd; stroke-opacity: 0.6; stroke-width: 0.8"/>
     </g>
     <g id="line2d_10">
      <g>
       <use xlink:href="#m767486af5d" x="377.406875" y="457.757969" style="stroke: #000000; stroke-width: 0.8"/>
      </g>
     </g>
     <g id="text_5">
      <!-- 0.8 -->
      <g transform="translate(369.455312 472.356406) scale(0.1 -0.1)">
       <defs>
        <path id="DejaVuSans-38" d="M 2034 2216 
Q 1584 2216 1326 1975 
Q 1069 1734 1069 1313 
Q 1069 891 1326 650 
Q 1584 409 2034 409 
Q 2484 409 2743 651 
Q 3003 894 3003 1313 
Q 3003 1734 2745 1975 
Q 2488 2216 2034 2216 
z
M 1403 2484 
Q 997 2584 770 2862 
Q 544 3141 544 3541 
Q 544 4100 942 4425 
Q 1341 4750 2034 4750 
Q 2731 4750 3128 4425 
Q 3525 4100 3525 3541 
Q 3525 3141 3298 2862 
Q 3072 2584 2669 2484 
Q 3125 2378 3379 2068 
Q 3634 1759 3634 1313 
Q 3634 634 3220 271 
Q 2806 -91 2034 -91 
Q 1263 -91 848 271 
Q 434 634 434 1313 
Q 434 1759 690 2068 
Q 947 2378 1403 2484 
z
M 1172 3481 
Q 1172 3119 1398 2916 
Q 1625 2713 2034 2713 
Q 2441 2713 2670 2916 
Q 2900 3119 2900 3481 
Q 2900 3844 2670 4047 
Q 2441 4250 2034 4250 
Q 1625 4250 1398 4047 
Q 1172 3844 1172 3481 
z
" transform="scale(0.015625)"/>
       </defs>
       <use xlink:href="#DejaVuSans-30"/>
       <use xlink:href="#DejaVuSans-2e" transform="translate(63.623047 0)"/>
       <use xlink:href="#DejaVuSans-38" transform="translate(95.410156 0)"/>
      </g>
     </g>
    </g>
    <g id="xtick_6">
     <g id="line2d_11">
      <path d="M 458.306875 457.757969 
L 458.306875 37.077969 
" clip-path="url(#p477dba0201)" style="fill: none; stroke-dasharray: 0.8,1.32; stroke-dashoffset: 0; stroke: #dddddd; stroke-opacity: 0.6; stroke-width: 0.8"/>
     </g>
     <g id="line2d_12">
      <g>
       <use xlink:href="#m767486af5d" x="458.306875" y="457.757969" style="stroke: #000000; stroke-width: 0.8"/>
      </g>
     </g>
     <g id="text_6">
      <!-- 1.0 -->
      <g transform="translate(450.355312 472.356406) scale(0.1 -0.1)">
       <defs>
        <path id="DejaVuSans-31" d="M 794 531 
L 1825 531 
L 1825 4091 
L 703 3866 
L 703 4441 
L 1819 4666 
L 2450 4666 
L 2450 531 
L 3481 531 
L 3481 0 
L 794 0 
L 794 531 
z
" transform="scale(0.015625)"/>
       </defs>
       <use xlink:href="#DejaVuSans-31"/>
       <use xlink:href="#DejaVuSans-2e" transform="translate(63.623047 0)"/>
       <use xlink:href="#DejaVuSans-30" transform="translate(95.410156 0)"/>
      </g>
     </g>
    </g>
    <g id="text_7">
     <!-- Predicted probability -->
     <g transform="translate(193.974687 487.554219) scale(0.12 -0.12)">
      <defs>
       <path id="DejaVuSans-50" d="M 1259 4147 
L 1259 2394 
L 2053 2394 
Q 2494 2394 2734 2622 
Q 2975 2850 2975 3272 
Q 2975 3691 2734 3919 
Q 2494 4147 2053 4147 
L 1259 4147 
z
M 628 4666 
L 2053 4666 
Q 2838 4666 3239 4311 
Q 3641 3956 3641 3272 
Q 3641 2581 3239 2228 
Q 2838 1875 2053 1875 
L 1259 1875 
L 1259 0 
L 628 0 
L 628 4666 
z
" transform="scale(0.015625)"/>
       <path id="DejaVuSans-72" d="M 2631 2963 
Q 2534 3019 2420 3045 
Q 2306 3072 2169 3072 
Q 1681 3072 1420 2755 
Q 1159 2438 1159 1844 
L 1159 0 
L 581 0 
L 581 3500 
L 1159 3500 
L 1159 2956 
Q 1341 3275 1631 3429 
Q 1922 3584 2338 3584 
Q 2397 3584 2469 3576 
Q 2541 3569 2628 3553 
L 2631 2963 
z
" transform="scale(0.015625)"/>
       <path id="DejaVuSans-65" d="M 3597 1894 
L 3597 1613 
L 953 1613 
Q 991 1019 1311 708 
Q 1631 397 2203 397 
Q 2534 397 2845 478 
Q 3156 559 3463 722 
L 3463 178 
Q 3153 47 2828 -22 
Q 2503 -91 2169 -91 
Q 1331 -91 842 396 
Q 353 884 353 1716 
Q 353 2575 817 3079 
Q 1281 3584 2069 3584 
Q 2775 3584 3186 3129 
Q 3597 2675 3597 1894 
z
M 3022 2063 
Q 3016 2534 2758 2815 
Q 2500 3097 2075 3097 
Q 1594 3097 1305 2825 
Q 1016 2553 972 2059 
L 3022 2063 
z
" transform="scale(0.015625)"/>
       <path id="DejaVuSans-64" d="M 2906 2969 
L 2906 4863 
L 3481 4863 
L 3481 0 
L 2906 0 
L 2906 525 
Q 2725 213 2448 61 
Q 2172 -91 1784 -91 
Q 1150 -91 751 415 
Q 353 922 353 1747 
Q 353 2572 751 3078 
Q 1150 3584 1784 3584 
Q 2172 3584 2448 3432 
Q 2725 3281 2906 2969 
z
M 947 1747 
Q 947 1113 1208 752 
Q 1469 391 1925 391 
Q 2381 391 2643 752 
Q 2906 1113 2906 1747 
Q 2906 2381 2643 2742 
Q 2381 3103 1925 3103 
Q 1469 3103 1208 2742 
Q 947 2381 947 1747 
z
" transform="scale(0.015625)"/>
       <path id="DejaVuSans-69" d="M 603 3500 
L 1178 3500 
L 1178 0 
L 603 0 
L 603 3500 
z
M 603 4863 
L 1178 4863 
L 1178 4134 
L 603 4134 
L 603 4863 
z
" transform="scale(0.015625)"/>
       <path id="DejaVuSans-63" d="M 3122 3366 
L 3122 2828 
Q 2878 2963 2633 3030 
Q 2388 3097 2138 3097 
Q 1578 3097 1268 2742 
Q 959 2388 959 1747 
Q 959 1106 1268 751 
Q 1578 397 2138 397 
Q 2388 397 2633 464 
Q 2878 531 3122 666 
L 3122 134 
Q 2881 22 2623 -34 
Q 2366 -91 2075 -91 
Q 1284 -91 818 406 
Q 353 903 353 1747 
Q 353 2603 823 3093 
Q 1294 3584 2113 3584 
Q 2378 3584 2631 3529 
Q 2884 3475 3122 3366 
z
" transform="scale(0.015625)"/>
       <path id="DejaVuSans-74" d="M 1172 4494 
L 1172 3500 
L 2356 3500 
L 2356 3053 
L 1172 3053 
L 1172 1153 
Q 1172 725 1289 603 
Q 1406 481 1766 481 
L 2356 481 
L 2356 0 
L 1766 0 
Q 1100 0 847 248 
Q 594 497 594 1153 
L 594 3053 
L 172 3053 
L 172 3500 
L 594 3500 
L 594 4494 
L 1172 4494 
z
" transform="scale(0.015625)"/>
       <path id="DejaVuSans-20" transform="scale(0.015625)"/>
       <path id="DejaVuSans-70" d="M 1159 525 
L 1159 -1331 
L 581 -1331 
L 581 3500 
L 1159 3500 
L 1159 2969 
Q 1341 3281 1617 3432 
Q 1894 3584 2278 3584 
Q 2916 3584 3314 3078 
Q 3713 2572 3713 1747 
Q 3713 922 3314 415 
Q 2916 -91 2278 -91 
Q 1894 -91 1617 61 
Q 1341 213 1159 525 
z
M 3116 1747 
Q 3116 2381 2855 2742 
Q 2594 3103 2138 3103 
Q 1681 3103 1420 2742 
Q 1159 2381 1159 1747 
Q 1159 1113 1420 752 
Q 1681 391 2138 391 
Q 2594 391 2855 752 
Q 3116 1113 3116 1747 
z
" transform="scale(0.015625)"/>
       <path id="DejaVuSans-6f" d="M 1959 3097 
Q 1497 3097 1228 2736 
Q 959 2375 959 1747 
Q 959 1119 1226 758 
Q 1494 397 1959 397 
Q 2419 397 2687 759 
Q 2956 1122 2956 1747 
Q 2956 2369 2687 2733 
Q 2419 3097 1959 3097 
z
M 1959 3584 
Q 2709 3584 3137 3096 
Q 3566 2609 3566 1747 
Q 3566 888 3137 398 
Q 2709 -91 1959 -91 
Q 1206 -91 779 398 
Q 353 888 353 1747 
Q 353 2609 779 3096 
Q 1206 3584 1959 3584 
z
" transform="scale(0.015625)"/>
       <path id="DejaVuSans-62" d="M 3116 1747 
Q 3116 2381 2855 2742 
Q 2594 3103 2138 3103 
Q 1681 3103 1420 2742 
Q 1159 2381 1159 1747 
Q 1159 1113 1420 752 
Q 1681 391 2138 391 
Q 2594 391 2855 752 
Q 3116 1113 3116 1747 
z
M 1159 2969 
Q 1341 3281 1617 3432 
Q 1894 3584 2278 3584 
Q 2916 3584 3314 3078 
Q 3713 2572 3713 1747 
Q 3713 922 3314 415 
Q 2916 -91 2278 -91 
Q 1894 -91 1617 61 
Q 1341 213 1159 525 
L 1159 0 
L 581 0 
L 581 4863 
L 1159 4863 
L 1159 2969 
z
" transform="scale(0.015625)"/>
       <path id="DejaVuSans-61" d="M 2194 1759 
Q 1497 1759 1228 1600 
Q 959 1441 959 1056 
Q 959 750 1161 570 
Q 1363 391 1709 391 
Q 2188 391 2477 730 
Q 2766 1069 2766 1631 
L 2766 1759 
L 2194 1759 
z
M 3341 1997 
L 3341 0 
L 2766 0 
L 2766 531 
Q 2569 213 2275 61 
Q 1981 -91 1556 -91 
Q 1019 -91 701 211 
Q 384 513 384 1019 
Q 384 1609 779 1909 
Q 1175 2209 1959 2209 
L 2766 2209 
L 2766 2266 
Q 2766 2663 2505 2880 
Q 2244 3097 1772 3097 
Q 1472 3097 1187 3025 
Q 903 2953 641 2809 
L 641 3341 
Q 956 3463 1253 3523 
Q 1550 3584 1831 3584 
Q 2591 3584 2966 3190 
Q 3341 2797 3341 1997 
z
" transform="scale(0.015625)"/>
       <path id="DejaVuSans-6c" d="M 603 4863 
L 1178 4863 
L 1178 0 
L 603 0 
L 603 4863 
z
" transform="scale(0.015625)"/>
       <path id="DejaVuSans-79" d="M 2059 -325 
Q 1816 -950 1584 -1140 
Q 1353 -1331 966 -1331 
L 506 -1331 
L 506 -850 
L 844 -850 
Q 1081 -850 1212 -737 
Q 1344 -625 1503 -206 
L 1606 56 
L 191 3500 
L 800 3500 
L 1894 763 
L 2988 3500 
L 3597 3500 
L 2059 -325 
z
" transform="scale(0.015625)"/>
      </defs>
      <use xlink:href="#DejaVuSans-50"/>
      <use xlink:href="#DejaVuSans-72" transform="translate(58.552734 0)"/>
      <use xlink:href="#DejaVuSans-65" transform="translate(97.416016 0)"/>
      <use xlink:href="#DejaVuSans-64" transform="translate(158.939453 0)"/>
      <use xlink:href="#DejaVuSans-69" transform="translate(222.416016 0)"/>
      <use xlink:href="#DejaVuSans-63" transform="translate(250.199219 0)"/>
      <use xlink:href="#DejaVuSans-74" transform="translate(305.179688 0)"/>
      <use xlink:href="#DejaVuSans-65" transform="translate(344.388672 0)"/>
      <use xlink:href="#DejaVuSans-64" transform="translate(405.912109 0)"/>
      <use xlink:href="#DejaVuSans-20" transform="translate(469.388672 0)"/>
      <use xlink:href="#DejaVuSans-70" transform="translate(501.175781 0)"/>
      <use xlink:href="#DejaVuSans-72" transform="translate(564.652344 0)"/>
      <use xlink:href="#DejaVuSans-6f" transform="translate(603.515625 0)"/>
      <use xlink:href="#DejaVuSans-62" transform="translate(664.697266 0)"/>
      <use xlink:href="#DejaVuSans-61" transform="translate(728.173828 0)"/>
      <use xlink:href="#DejaVuSans-62" transform="translate(789.453125 0)"/>
      <use xlink:href="#DejaVuSans-69" transform="translate(852.929688 0)"/>
      <use xlink:href="#DejaVuSans-6c" transform="translate(880.712891 0)"/>
      <use xlink:href="#DejaVuSans-69" transform="translate(908.496094 0)"/>
      <use xlink:href="#DejaVuSans-74" transform="translate(936.279297 0)"/>
      <use xlink:href="#DejaVuSans-79" transform="translate(975.488281 0)"/>
     </g>
    </g>
   </g>
   <g id="matplotlib.axis_2">
    <g id="ytick_1">
     <g id="line2d_13">
      <path d="M 45.716875 449.667969 
L 466.396875 449.667969 
" clip-path="url(#p477dba0201)" style="fill: none; stroke-dasharray: 0.8,1.32; stroke-dashoffset: 0; stroke: #dddddd; stroke-opacity: 0.6; stroke-width: 0.8"/>
     </g>
     <g id="line2d_14">
      <defs>
       <path id="mda8c708307" d="M 0 0 
L -3.5 0 
" style="stroke: #000000; stroke-width: 0.8"/>
      </defs>
      <g>
       <use xlink:href="#mda8c708307" x="45.716875" y="449.667969" style="stroke: #000000; stroke-width: 0.8"/>
      </g>
     </g>
     <g id="text_8">
      <!-- 0.0 -->
      <g transform="translate(22.81375 453.467187) scale(0.1 -0.1)">
       <use xlink:href="#DejaVuSans-30"/>
       <use xlink:href="#DejaVuSans-2e" transform="translate(63.623047 0)"/>
       <use xlink:href="#DejaVuSans-30" transform="translate(95.410156 0)"/>
      </g>
     </g>
    </g>
    <g id="ytick_2">
     <g id="line2d_15">
      <path d="M 45.716875 368.767969 
L 466.396875 368.767969 
" clip-path="url(#p477dba0201)" style="fill: none; stroke-dasharray: 0.8,1.32; stroke-dashoffset: 0; stroke: #dddddd; stroke-opacity: 0.6; stroke-width: 0.8"/>
     </g>
     <g id="line2d_16">
      <g>
       <use xlink:href="#mda8c708307" x="45.716875" y="368.767969" style="stroke: #000000; stroke-width: 0.8"/>
      </g>
     </g>
     <g id="text_9">
      <!-- 0.2 -->
      <g transform="translate(22.81375 372.567187) scale(0.1 -0.1)">
       <use xlink:href="#DejaVuSans-30"/>
       <use xlink:href="#DejaVuSans-2e" transform="translate(63.623047 0)"/>
       <use xlink:href="#DejaVuSans-32" transform="translate(95.410156 0)"/>
      </g>
     </g>
    </g>
    <g id="ytick_3">
     <g id="line2d_17">
      <path d="M 45.716875 287.867969 
L 466.396875 287.867969 
" clip-path="url(#p477dba0201)" style="fill: none; stroke-dasharray: 0.8,1.32; stroke-dashoffset: 0; stroke: #dddddd; stroke-opacity: 0.6; stroke-width: 0.8"/>
     </g>
     <g id="line2d_18">
      <g>
       <use xlink:href="#mda8c708307" x="45.716875" y="287.867969" style="stroke: #000000; stroke-width: 0.8"/>
      </g>
     </g>
     <g id="text_10">
      <!-- 0.4 -->
      <g transform="translate(22.81375 291.667187) scale(0.1 -0.1)">
       <use xlink:href="#DejaVuSans-30"/>
       <use xlink:href="#DejaVuSans-2e" transform="translate(63.623047 0)"/>
       <use xlink:href="#DejaVuSans-34" transform="translate(95.410156 0)"/>
      </g>
     </g>
    </g>
    <g id="ytick_4">
     <g id="line2d_19">
      <path d="M 45.716875 206.967969 
L 466.396875 206.967969 
" clip-path="url(#p477dba0201)" style="fill: none; stroke-dasharray: 0.8,1.32; stroke-dashoffset: 0; stroke: #dddddd; stroke-opacity: 0.6; stroke-width: 0.8"/>
     </g>
     <g id="line2d_20">
      <g>
       <use xlink:href="#mda8c708307" x="45.716875" y="206.967969" style="stroke: #000000; stroke-width: 0.8"/>
      </g>
     </g>
     <g id="text_11">
      <!-- 0.6 -->
      <g transform="translate(22.81375 210.767187) scale(0.1 -0.1)">
       <use xlink:href="#DejaVuSans-30"/>
       <use xlink:href="#DejaVuSans-2e" transform="translate(63.623047 0)"/>
       <use xlink:href="#DejaVuSans-36" transform="translate(95.410156 0)"/>
      </g>
     </g>
    </g>
    <g id="ytick_5">
     <g id="line2d_21">
      <path d="M 45.716875 126.067969 
L 466.396875 126.067969 
" clip-path="url(#p477dba0201)" style="fill: none; stroke-dasharray: 0.8,1.32; stroke-dashoffset: 0; stroke: #dddddd; stroke-opacity: 0.6; stroke-width: 0.8"/>
     </g>
     <g id="line2d_22">
      <g>
       <use xlink:href="#mda8c708307" x="45.716875" y="126.067969" style="stroke: #000000; stroke-width: 0.8"/>
      </g>
     </g>
     <g id="text_12">
      <!-- 0.8 -->
      <g transform="translate(22.81375 129.867187) scale(0.1 -0.1)">
       <use xlink:href="#DejaVuSans-30"/>
       <use xlink:href="#DejaVuSans-2e" transform="translate(63.623047 0)"/>
       <use xlink:href="#DejaVuSans-38" transform="translate(95.410156 0)"/>
      </g>
     </g>
    </g>
    <g id="ytick_6">
     <g id="line2d_23">
      <path d="M 45.716875 45.167969 
L 466.396875 45.167969 
" clip-path="url(#p477dba0201)" style="fill: none; stroke-dasharray: 0.8,1.32; stroke-dashoffset: 0; stroke: #dddddd; stroke-opacity: 0.6; stroke-width: 0.8"/>
     </g>
     <g id="line2d_24">
      <g>
       <use xlink:href="#mda8c708307" x="45.716875" y="45.167969" style="stroke: #000000; stroke-width: 0.8"/>
      </g>
     </g>
     <g id="text_13">
      <!-- 1.0 -->
      <g transform="translate(22.81375 48.967187) scale(0.1 -0.1)">
       <use xlink:href="#DejaVuSans-31"/>
       <use xlink:href="#DejaVuSans-2e" transform="translate(63.623047 0)"/>
       <use xlink:href="#DejaVuSans-30" transform="translate(95.410156 0)"/>
      </g>
     </g>
    </g>
    <g id="text_14">
     <!-- Observed frequency -->
     <g transform="translate(16.318125 308.285156) rotate(-90) scale(0.12 -0.12)">
      <defs>
       <path id="DejaVuSans-4f" d="M 2522 4238 
Q 1834 4238 1429 3725 
Q 1025 3213 1025 2328 
Q 1025 1447 1429 934 
Q 1834 422 2522 422 
Q 3209 422 3611 934 
Q 4013 1447 4013 2328 
Q 4013 3213 3611 3725 
Q 3209 4238 2522 4238 
z
M 2522 4750 
Q 3503 4750 4090 4092 
Q 4678 3434 4678 2328 
Q 4678 1225 4090 567 
Q 3503 -91 2522 -91 
Q 1538 -91 948 565 
Q 359 1222 359 2328 
Q 359 3434 948 4092 
Q 1538 4750 2522 4750 
z
" transform="scale(0.015625)"/>
       <path id="DejaVuSans-73" d="M 2834 3397 
L 2834 2853 
Q 2591 2978 2328 3040 
Q 2066 3103 1784 3103 
Q 1356 3103 1142 2972 
Q 928 2841 928 2578 
Q 928 2378 1081 2264 
Q 1234 2150 1697 2047 
L 1894 2003 
Q 2506 1872 2764 1633 
Q 3022 1394 3022 966 
Q 3022 478 2636 193 
Q 2250 -91 1575 -91 
Q 1294 -91 989 -36 
Q 684 19 347 128 
L 347 722 
Q 666 556 975 473 
Q 1284 391 1588 391 
Q 1994 391 2212 530 
Q 2431 669 2431 922 
Q 2431 1156 2273 1281 
Q 2116 1406 1581 1522 
L 1381 1569 
Q 847 1681 609 1914 
Q 372 2147 372 2553 
Q 372 3047 722 3315 
Q 1072 3584 1716 3584 
Q 2034 3584 2315 3537 
Q 2597 3491 2834 3397 
z
" transform="scale(0.015625)"/>
       <path id="DejaVuSans-76" d="M 191 3500 
L 800 3500 
L 1894 563 
L 2988 3500 
L 3597 3500 
L 2284 0 
L 1503 0 
L 191 3500 
z
" transform="scale(0.015625)"/>
       <path id="DejaVuSans-66" d="M 2375 4863 
L 2375 4384 
L 1825 4384 
Q 1516 4384 1395 4259 
Q 1275 4134 1275 3809 
L 1275 3500 
L 2222 3500 
L 2222 3053 
L 1275 3053 
L 1275 0 
L 697 0 
L 697 3053 
L 147 3053 
L 147 3500 
L 697 3500 
L 697 3744 
Q 697 4328 969 4595 
Q 1241 4863 1831 4863 
L 2375 4863 
z
" transform="scale(0.015625)"/>
       <path id="DejaVuSans-71" d="M 947 1747 
Q 947 1113 1208 752 
Q 1469 391 1925 391 
Q 2381 391 2643 752 
Q 2906 1113 2906 1747 
Q 2906 2381 2643 2742 
Q 2381 3103 1925 3103 
Q 1469 3103 1208 2742 
Q 947 2381 947 1747 
z
M 2906 525 
Q 2725 213 2448 61 
Q 2172 -91 1784 -91 
Q 1150 -91 751 415 
Q 353 922 353 1747 
Q 353 2572 751 3078 
Q 1150 3584 1784 3584 
Q 2172 3584 2448 3432 
Q 2725 3281 2906 2969 
L 2906 3500 
L 3481 3500 
L 3481 -1331 
L 2906 -1331 
L 2906 525 
z
" transform="scale(0.015625)"/>
       <path id="DejaVuSans-75" d="M 544 1381 
L 544 3500 
L 1119 3500 
L 1119 1403 
Q 1119 906 1312 657 
Q 1506 409 1894 409 
Q 2359 409 2629 706 
Q 2900 1003 2900 1516 
L 2900 3500 
L 3475 3500 
L 3475 0 
L 2900 0 
L 2900 538 
Q 2691 219 2414 64 
Q 2138 -91 1772 -91 
Q 1169 -91 856 284 
Q 544 659 544 1381 
z
M 1991 3584 
L 1991 3584 
z
" transform="scale(0.015625)"/>
       <path id="DejaVuSans-6e" d="M 3513 2113 
L 3513 0 
L 2938 0 
L 2938 2094 
Q 2938 2591 2744 2837 
Q 2550 3084 2163 3084 
Q 1697 3084 1428 2787 
Q 1159 2491 1159 1978 
L 1159 0 
L 581 0 
L 581 3500 
L 1159 3500 
L 1159 2956 
Q 1366 3272 1645 3428 
Q 1925 3584 2291 3584 
Q 2894 3584 3203 3211 
Q 3513 2838 3513 2113 
z
" transform="scale(0.015625)"/>
      </defs>
      <use xlink:href="#DejaVuSans-4f"/>
      <use xlink:href="#DejaVuSans-62" transform="translate(78.710938 0)"/>
      <use xlink:href="#DejaVuSans-73" transform="translate(142.1875 0)"/>
      <use xlink:href="#DejaVuSans-65" transform="translate(194.287109 0)"/>
      <use xlink:href="#DejaVuSans-72" transform="translate(255.810547 0)"/>
      <use xlink:href="#DejaVuSans-76" transform="translate(296.923828 0)"/>
      <use xlink:href="#DejaVuSans-65" transform="translate(356.103516 0)"/>
      <use xlink:href="#DejaVuSans-64" transform="translate(417.626953 0)"/>
      <use xlink:href="#DejaVuSans-20" transform="translate(481.103516 0)"/>
      <use xlink:href="#DejaVuSans-66" transform="translate(512.890625 0)"/>
      <use xlink:href="#DejaVuSans-72" transform="translate(548.095703 0)"/>
      <use xlink:href="#DejaVuSans-65" transform="translate(586.958984 0)"/>
      <use xlink:href="#DejaVuSans-71" transform="translate(648.482422 0)"/>
      <use xlink:href="#DejaVuSans-75" transform="translate(711.958984 0)"/>
      <use xlink:href="#DejaVuSans-65" transform="translate(775.337891 0)"/>
      <use xlink:href="#DejaVuSans-6e" transform="translate(836.861328 0)"/>
      <use xlink:href="#DejaVuSans-63" transform="translate(900.240234 0)"/>
      <use xlink:href="#DejaVuSans-79" transform="translate(955.220703 0)"/>
     </g>
    </g>
   </g>
   <g id="line2d_25">
    <path d="M 53.806875 449.667969 
L 458.306875 45.167969 
" clip-path="url(#p477dba0201)" style="fill: none; stroke-dasharray: 3.7,1.6; stroke-dashoffset: 0; stroke: #bbbbbb"/>
   </g>
   <g id="PathCollection_1">
    <path d="M 108.331867 279.049439 
C 109.058155 279.049439 109.754795 278.760881 110.268359 278.247318 
C 110.781922 277.733754 111.07048 277.037114 111.07048 276.310826 
C 111.07048 275.584537 110.781922 274.887898 110.268359 274.374334 
C 109.754795 273.860771 109.058155 273.572213 108.331867 273.572213 
C 107.605578 273.572213 106.908939 273.860771 106.395375 274.374334 
C 105.881812 274.887898 105.593254 275.584537 105.593254 276.310826 
C 105.593254 277.037114 105.881812 277.733754 106.395375 278.247318 
C 106.908939 278.760881 107.605578 279.049439 108.331867 279.049439 
z
" clip-path="url(#p477dba0201)" style="fill: #888888; fill-opacity: 0.45"/>
   </g>
   <g id="PathCollection_2">
    <path d="M 148.124558 250.156582 
C 148.850847 250.156582 149.547487 249.868024 150.06105 249.35446 
C 150.574614 248.840897 150.863171 248.144257 150.863171 247.417969 
C 150.863171 246.69168 150.574614 245.995041 150.06105 245.481477 
C 149.547487 244.967913 148.850847 244.679356 148.124558 244.679356 
C 147.39827 244.679356 146.70163 244.967913 146.188067 245.481477 
C 145.674503 245.995041 145.385946 246.69168 145.385946 247.417969 
C 145.385946 248.144257 145.674503 248.840897 146.188067 249.35446 
C 146.70163 249.868024 147.39827 250.156582 148.124558 250.156582 
z
" clip-path="url(#p477dba0201)" style="fill: #888888; fill-opacity: 0.45"/>
   </g>
   <g id="PathCollection_3">
    <path d="M 195.34927 317.573248 
C 196.075558 317.573248 196.772198 317.284691 197.285761 316.771127 
C 197.799325 316.257563 198.087883 315.560924 198.087883 314.834635 
C 198.087883 314.108347 197.799325 313.411707 197.285761 312.898144 
C 196.772198 312.38458 196.075558 312.096023 195.34927 312.096023 
C 194.622981 312.096023 193.926342 312.38458 193.412778 312.898144 
C 192.899214 313.411707 192.610657 314.108347 192.610657 314.834635 
C 192.610657 315.560924 192.899214 316.257563 193.412778 316.771127 
C 193.926342 317.284691 194.622981 317.573248 195.34927 317.573248 
z
" clip-path="url(#p477dba0201)" style="fill: #888888; fill-opacity: 0.45"/>
   </g>
   <g id="PathCollection_4">
    <path d="M 245.430482 452.406582 
C 246.156771 452.406582 246.85341 452.118024 247.366974 451.60446 
C 247.880538 451.090897 248.169095 450.394257 248.169095 449.667969 
C 248.169095 448.94168 247.880538 448.245041 247.366974 447.731477 
C 246.85341 447.217913 246.156771 446.929356 245.430482 446.929356 
C 244.704194 446.929356 244.007554 447.217913 243.493991 447.731477 
C 242.980427 448.245041 242.69187 448.94168 242.69187 449.667969 
C 242.69187 450.394257 242.980427 451.090897 243.493991 451.60446 
C 244.007554 452.118024 244.704194 452.406582 245.430482 452.406582 
z
" clip-path="url(#p477dba0201)" style="fill: #888888; fill-opacity: 0.45"/>
   </g>
   <g id="PathCollection_5">
    <path d="M 279.72275 47.906582 
C 280.449038 47.906582 281.145678 47.618024 281.659241 47.10446 
C 282.172805 46.590897 282.461363 45.894257 282.461363 45.167969 
C 282.461363 44.44168 282.172805 43.745041 281.659241 43.231477 
C 281.145678 42.717913 280.449038 42.429356 279.72275 42.429356 
C 278.996461 42.429356 278.299822 42.717913 277.786258 43.231477 
C 277.272694 43.745041 276.984137 44.44168 276.984137 45.167969 
C 276.984137 45.894257 277.272694 46.590897 277.786258 47.10446 
C 278.299822 47.618024 278.996461 47.906582 279.72275 47.906582 
z
" clip-path="url(#p477dba0201)" style="fill: #888888; fill-opacity: 0.45"/>
   </g>
   <g id="PathCollection_6">
    <path d="M 317.557186 182.739915 
C 318.283474 182.739915 318.980114 182.451357 319.493677 181.937794 
C 320.007241 181.42423 320.295798 180.727591 320.295798 180.001302 
C 320.295798 179.275013 320.007241 178.578374 319.493677 178.06481 
C 318.980114 177.551247 318.283474 177.262689 317.557186 177.262689 
C 316.830897 177.262689 316.134257 177.551247 315.620694 178.06481 
C 315.10713 178.578374 314.818573 179.275013 314.818573 180.001302 
C 314.818573 180.727591 315.10713 181.42423 315.620694 181.937794 
C 316.134257 182.451357 316.830897 182.739915 317.557186 182.739915 
z
" clip-path="url(#p477dba0201)" style="fill: #888888; fill-opacity: 0.45"/>
   </g>
   <g id="PathCollection_7">
    <path d="M 356.286041 163.47801 
C 357.01233 163.47801 357.708969 163.189453 358.222533 162.675889 
C 358.736096 162.162325 359.024654 161.465686 359.024654 160.739397 
C 359.024654 160.013109 358.736096 159.316469 358.222533 158.802906 
C 357.708969 158.289342 357.01233 158.000785 356.286041 158.000785 
C 355.559752 158.000785 354.863113 158.289342 354.349549 158.802906 
C 353.835986 159.316469 353.547428 160.013109 353.547428 160.739397 
C 353.547428 161.465686 353.835986 162.162325 354.349549 162.675889 
C 354.863113 163.189453 355.559752 163.47801 356.286041 163.47801 
z
" clip-path="url(#p477dba0201)" style="fill: #888888; fill-opacity: 0.45"/>
   </g>
   <g id="PathCollection_8">
    <path d="M 393.574294 250.156582 
C 394.300583 250.156582 394.997222 249.868024 395.510786 249.35446 
C 396.024349 248.840897 396.312907 248.144257 396.312907 247.417969 
C 396.312907 246.69168 396.024349 245.995041 395.510786 245.481477 
C 394.997222 244.967913 394.300583 244.679356 393.574294 244.679356 
C 392.848005 244.679356 392.151366 244.967913 391.637802 245.481477 
C 391.124239 245.995041 390.835681 246.69168 390.835681 247.417969 
C 390.835681 248.144257 391.124239 248.840897 391.637802 249.35446 
C 392.151366 249.868024 392.848005 250.156582 393.574294 250.156582 
z
" clip-path="url(#p477dba0201)" style="fill: #888888; fill-opacity: 0.45"/>
   </g>
   <g id="patch_3">
    <path d="M 45.716875 457.757969 
L 45.716875 37.077969 
" style="fill: none; stroke: #000000; stroke-width: 0.8; stroke-linejoin: miter; stroke-linecap: square"/>
   </g>
   <g id="patch_4">
    <path d="M 466.396875 457.757969 
L 466.396875 37.077969 
" style="fill: none; stroke: #000000; stroke-width: 0.8; stroke-linejoin: miter; stroke-linecap: square"/>
   </g>
   <g id="patch_5">
    <path d="M 45.716875 457.757969 
L 466.396875 457.757969 
" style="fill: none; stroke: #000000; stroke-width: 0.8; stroke-linejoin: miter; stroke-linecap: square"/>
   </g>
   <g id="patch_6">
    <path d="M 45.716875 37.077969 
L 466.396875 37.077969 
" style="fill: none; stroke: #000000; stroke-width: 0.8; stroke-linejoin: miter; stroke-linecap: square"/>
   </g>
   <g id="LineCollection_1">
    <path d="M 56.442663 432.887618 
L 56.442663 413.472768 
" clip-path="url(#p477dba0201)" style="fill: none; stroke: #444444; stroke-width: 1.2"/>
   </g>
   <g id="line2d_26">
    <defs>
     <path id="m62954e5833" d="M 5 0 
L -5 -0 
" style="stroke: #444444"/>
    </defs>
    <g clip-path="url(#p477dba0201)">
     <use xlink:href="#m62954e5833" x="56.442663" y="432.887618" style="fill: #1f77b4; stroke: #444444"/>
    </g>
   </g>
   <g id="line2d_27">
    <g clip-path="url(#p477dba0201)">
     <use xlink:href="#m62954e5833" x="56.442663" y="413.472768" style="fill: #1f77b4; stroke: #444444"/>
    </g>
   </g>
   <g id="LineCollection_2">
    <path d="M 456.86307 94.285876 
L 456.86307 72.46004 
" clip-path="url(#p477dba0201)" style="fill: none; stroke: #444444; stroke-width: 1.2"/>
   </g>
   <g id="line2d_28">
    <g clip-path="url(#p477dba0201)">
     <use xlink:href="#m62954e5833" x="456.86307" y="94.285876" style="fill: #1f77b4; stroke: #444444"/>
    </g>
   </g>
   <g id="line2d_29">
    <g clip-path="url(#p477dba0201)">
     <use xlink:href="#m62954e5833" x="456.86307" y="72.46004" style="fill: #1f77b4; stroke: #444444"/>
    </g>
   </g>
   <g id="text_15">
    <!-- revision 714eb0fa · n = 872 · outcome: Not calibrated -->
    <g style="fill: #555555" transform="translate(45.716875 26.584681) scale(0.1 -0.1)">
     <defs>
      <path id="DejaVuSans-37" d="M 525 4666 
L 3525 4666 
L 3525 4397 
L 1831 0 
L 1172 0 
L 2766 4134 
L 525 4134 
L 525 4666 
z
" transform="scale(0.015625)"/>
      <path id="DejaVuSans-b7" d="M 684 2619 
L 1344 2619 
L 1344 1825 
L 684 1825 
L 684 2619 
z
" transform="scale(0.015625)"/>
      <path id="DejaVuSans-3d" d="M 678 2906 
L 4684 2906 
L 4684 2381 
L 678 2381 
L 678 2906 
z
M 678 1631 
L 4684 1631 
L 4684 1100 
L 678 1100 
L 678 1631 
z
" transform="scale(0.015625)"/>
      <path id="DejaVuSans-6d" d="M 3328 2828 
Q 3544 3216 3844 3400 
Q 4144 3584 4550 3584 
Q 5097 3584 5394 3201 
Q 5691 2819 5691 2113 
L 5691 0 
L 5113 0 
L 5113 2094 
Q 5113 2597 4934 2840 
Q 4756 3084 4391 3084 
Q 3944 3084 3684 2787 
Q 3425 2491 3425 1978 
L 3425 0 
L 2847 0 
L 2847 2094 
Q 2847 2600 2669 2842 
Q 2491 3084 2119 3084 
Q 1678 3084 1418 2786 
Q 1159 2488 1159 1978 
L 1159 0 
L 581 0 
L 581 3500 
L 1159 3500 
L 1159 2956 
Q 1356 3278 1631 3431 
Q 1906 3584 2284 3584 
Q 2666 3584 2933 3390 
Q 3200 3197 3328 2828 
z
" transform="scale(0.015625)"/>
      <path id="DejaVuSans-3a" d="M 750 794 
L 1409 794 
L 1409 0 
L 750 0 
L 750 794 
z
M 750 3309 
L 1409 3309 
L 1409 2516 
L 750 2516 
L 750 3309 
z
" transform="scale(0.015625)"/>
      <path id="DejaVuSans-4e" d="M 628 4666 
L 1478 4666 
L 3547 763 
L 3547 4666 
L 4159 4666 
L 4159 0 
L 3309 0 
L 1241 3903 
L 1241 0 
L 628 0 
L 628 4666 
z
" transform="scale(0.015625)"/>
     </defs>
     <use xlink:href="#DejaVuSans-72"/>
     <use xlink:href="#DejaVuSans-65" transform="translate(38.863281 0)"/>
     <use xlink:href="#DejaVuSans-76" transform="translate(100.386719 0)"/>
     <use xlink:href="#DejaVuSans-69" transform="translate(159.566406 0)"/>
     <use xlink:href="#DejaVuSans-73" transform="translate(187.349609 0)"/>
     <use xlink:href="#DejaVuSans-69" transform="translate(239.449219 0)"/>
     <use xlink:href="#DejaVuSans-6f" transform="translate(267.232422 0)"/>
     <use xlink:href="#DejaVuSans-6e" transform="translate(328.414062 0)"/>
     <use xlink:href="#DejaVuSans-20" transform="translate(391.792969 0)"/>
     <use xlink:href="#DejaVuSans-37" transform="translate(423.580078 0)"/>
     <use xlink:href="#DejaVuSans-31" transform="translate(487.203125 0)"/>
     <use xlink:href="#DejaVuSans-34" transform="translate(550.826172 0)"/>
     <use xlink:href="#DejaVuSans-65" transform="translate(614.449219 0)"/>
     <use xlink:href="#DejaVuSans-62" transform="translate(675.972656 0)"/>
     <use xlink:href="#DejaVuSans-30" transform="translate(739.449219 0)"/>
     <use xlink:href="#DejaVuSans-66" transform="translate(803.072266 0)"/>
     <use xlink:href="#DejaVuSans-61" transform="translate(838.277344 0)"/>
     <use xlink:href="#DejaVuSans-20" transform="translate(899.556641 0)"/>
     <use xlink:href="#DejaVuSans-b7" transform="translate(931.34375 0)"/>
     <use xlink:href="#DejaVuSans-20" transform="translate(963.130859 0)"/>
     <use xlink:href="#DejaVuSans-6e" transform="translate(994.917969 0)"/>
     <use xlink:href="#DejaVuSans-20" transform="translate(1058.296875 0)"/>
     <use xlink:href="#DejaVuSans-3d" transform="translate(1090.083984 0)"/>
     <use xlink:href="#DejaVuSans-20" transform="translate(1173.873047 0)"/>
     <use xlink:href="#DejaVuSans-38" transform="translate(1205.660156 0)"/>
     <use xlink:href="#DejaVuSans-37" transform="translate(1269.283203 0)"/>
     <use xlink:href="#DejaVuSans-32" transform="translate(1332.90625 0)"/>
     <use xlink:href="#DejaVuSans-20" transform="translate(1396.529297 0)"/>
     <use xlink:href="#DejaVuSans-b7" transform="translate(1428.316406 0)"/>
     <use xlink:href="#DejaVuSans-20" transform="translate(1460.103516 0)"/>
     <use xlink:href="#DejaVuSans-6f" transform="translate(1491.890625 0)"/>
     <use xlink:href="#DejaVuSans-75" transform="translate(1553.072266 0)"/>
     <use xlink:href="#DejaVuSans-74" transform="translate(1616.451172 0)"/>
     <use xlink:href="#DejaVuSans-63" transform="translate(1655.660156 0)"/>
     <use xlink:href="#DejaVuSans-6f" transform="translate(1710.640625 0)"/>
     <use xlink:href="#DejaVuSans-6d" transform="translate(1771.822266 0)"/>
     <use xlink:href="#DejaVuSans-65" transform="translate(1869.234375 0)"/>
     <use xlink:href="#DejaVuSans-3a" transform="translate(1930.757812 0)"/>
     <use xlink:href="#DejaVuSans-20" transform="translate(1964.449219 0)"/>
     <use xlink:href="#DejaVuSans-4e" transform="translate(1996.236328 0)"/>
     <use xlink:href="#DejaVuSans-6f" transform="translate(2071.041016 0)"/>
     <use xlink:href="#DejaVuSans-74" transform="translate(2132.222656 0)"/>
     <use xlink:href="#DejaVuSans-20" transform="translate(2171.431641 0)"/>
     <use xlink:href="#DejaVuSans-63" transform="translate(2203.21875 0)"/>
     <use xlink:href="#DejaVuSans-61" transform="translate(2258.199219 0)"/>
     <use xlink:href="#DejaVuSans-6c" transform="translate(2319.478516 0)"/>
     <use xlink:href="#DejaVuSans-69" transform="translate(2347.261719 0)"/>
     <use xlink:href="#DejaVuSans-62" transform="translate(2375.044922 0)"/>
     <use xlink:href="#DejaVuSans-72" transform="translate(2438.521484 0)"/>
     <use xlink:href="#DejaVuSans-61" transform="translate(2479.634766 0)"/>
     <use xlink:href="#DejaVuSans-74" transform="translate(2540.914062 0)"/>
     <use xlink:href="#DejaVuSans-65" transform="translate(2580.123047 0)"/>
     <use xlink:href="#DejaVuSans-64" transform="translate(2641.646484 0)"/>
    </g>
   </g>
   <g id="text_16">
    <!-- Reliability — distilbert-base-uncased-finetuned-sst-2-english -->
    <g transform="translate(45.716875 17.077969) scale(0.13 -0.13)">
     <defs>
      <path id="DejaVuSans-52" d="M 2841 2188 
Q 3044 2119 3236 1894 
Q 3428 1669 3622 1275 
L 4263 0 
L 3584 0 
L 2988 1197 
Q 2756 1666 2539 1819 
Q 2322 1972 1947 1972 
L 1259 1972 
L 1259 0 
L 628 0 
L 628 4666 
L 2053 4666 
Q 2853 4666 3247 4331 
Q 3641 3997 3641 3322 
Q 3641 2881 3436 2590 
Q 3231 2300 2841 2188 
z
M 1259 4147 
L 1259 2491 
L 2053 2491 
Q 2509 2491 2742 2702 
Q 2975 2913 2975 3322 
Q 2975 3731 2742 3939 
Q 2509 4147 2053 4147 
L 1259 4147 
z
" transform="scale(0.015625)"/>
      <path id="DejaVuSans-2014" d="M 313 1978 
L 6088 1978 
L 6088 1528 
L 313 1528 
L 313 1978 
z
" transform="scale(0.015625)"/>
      <path id="DejaVuSans-2d" d="M 313 2009 
L 1997 2009 
L 1997 1497 
L 313 1497 
L 313 2009 
z
" transform="scale(0.015625)"/>
      <path id="DejaVuSans-67" d="M 2906 1791 
Q 2906 2416 2648 2759 
Q 2391 3103 1925 3103 
Q 1463 3103 1205 2759 
Q 947 2416 947 1791 
Q 947 1169 1205 825 
Q 1463 481 1925 481 
Q 2391 481 2648 825 
Q 2906 1169 2906 1791 
z
M 3481 434 
Q 3481 -459 3084 -895 
Q 2688 -1331 1869 -1331 
Q 1566 -1331 1297 -1286 
Q 1028 -1241 775 -1147 
L 775 -588 
Q 1028 -725 1275 -790 
Q 1522 -856 1778 -856 
Q 2344 -856 2625 -561 
Q 2906 -266 2906 331 
L 2906 616 
Q 2728 306 2450 153 
Q 2172 0 1784 0 
Q 1141 0 747 490 
Q 353 981 353 1791 
Q 353 2603 747 3093 
Q 1141 3584 1784 3584 
Q 2172 3584 2450 3431 
Q 2728 3278 2906 2969 
L 2906 3500 
L 3481 3500 
L 3481 434 
z
" transform="scale(0.015625)"/>
      <path id="DejaVuSans-68" d="M 3513 2113 
L 3513 0 
L 2938 0 
L 2938 2094 
Q 2938 2591 2744 2837 
Q 2550 3084 2163 3084 
Q 1697 3084 1428 2787 
Q 1159 2491 1159 1978 
L 1159 0 
L 581 0 
L 581 4863 
L 1159 4863 
L 1159 2956 
Q 1366 3272 1645 3428 
Q 1925 3584 2291 3584 
Q 2894 3584 3203 3211 
Q 3513 2838 3513 2113 
z
" transform="scale(0.015625)"/>
     </defs>
     <use xlink:href="#DejaVuSans-52"/>
     <use xlink:href="#DejaVuSans-65" transform="translate(64.982422 0)"/>
     <use xlink:href="#DejaVuSans-6c" transform="translate(126.505859 0)"/>
     <use xlink:href="#DejaVuSans-69" transform="translate(154.289062 0)"/>
     <use xlink:href="#DejaVuSans-61" transform="translate(182.072266 0)"/>
     <use xlink:href="#DejaVuSans-62" transform="translate(243.351562 0)"/>
     <use xlink:href="#DejaVuSans-69" transform="translate(306.828125 0)"/>
     <use xlink:href="#DejaVuSans-6c" transform="translate(334.611328 0)"/>
     <use xlink:href="#DejaVuSans-69" transform="translate(362.394531 0)"/>
     <use xlink:href="#DejaVuSans-74" transform="translate(390.177734 0)"/>
     <use xlink:href="#DejaVuSans-79" transform="translate(429.386719 0)"/>
     <use xlink:href="#DejaVuSans-20" transform="translate(488.566406 0)"/>
     <use xlink:href="#DejaVuSans-2014" transform="translate(520.353516 0)"/>
     <use xlink:href="#DejaVuSans-20" transform="translate(620.353516 0)"/>
     <use xlink:href="#DejaVuSans-64" transform="translate(652.140625 0)"/>
     <use xlink:href="#DejaVuSans-69" transform="translate(715.617188 0)"/>
     <use xlink:href="#DejaVuSans-73" transform="translate(743.400391 0)"/>
     <use xlink:href="#DejaVuSans-74" transform="translate(795.5 0)"/>
     <use xlink:href="#DejaVuSans-69" transform="translate(834.708984 0)"/>
     <use xlink:href="#DejaVuSans-6c" transform="translate(862.492188 0)"/>
     <use xlink:href="#DejaVuSans-62" transform="translate(890.275391 0)"/>
     <use xlink:href="#DejaVuSans-65" transform="translate(953.751953 0)"/>
     <use xlink:href="#DejaVuSans-72" transform="translate(1015.275391 0)"/>
     <use xlink:href="#DejaVuSans-74" transform="translate(1056.388672 0)"/>
     <use xlink:href="#DejaVuSans-2d" transform="translate(1095.597656 0)"/>
     <use xlink:href="#DejaVuSans-62" transform="translate(1131.681641 0)"/>
     <use xlink:href="#DejaVuSans-61" transform="translate(1195.158203 0)"/>
     <use xlink:href="#DejaVuSans-73" transform="translate(1256.4375 0)"/>
     <use xlink:href="#DejaVuSans-65" transform="translate(1308.537109 0)"/>
     <use xlink:href="#DejaVuSans-2d" transform="translate(1370.060547 0)"/>
     <use xlink:href="#DejaVuSans-75" transform="translate(1406.144531 0)"/>
     <use xlink:href="#DejaVuSans-6e" transform="translate(1469.523438 0)"/>
     <use xlink:href="#DejaVuSans-63" transform="translate(1532.902344 0)"/>
     <use xlink:href="#DejaVuSans-61" transform="translate(1587.882812 0)"/>
     <use xlink:href="#DejaVuSans-73" transform="translate(1649.162109 0)"/>
     <use xlink:href="#DejaVuSans-65" transform="translate(1701.261719 0)"/>
     <use xlink:href="#DejaVuSans-64" transform="translate(1762.785156 0)"/>
     <use xlink:href="#DejaVuSans-2d" transform="translate(1826.261719 0)"/>
     <use xlink:href="#DejaVuSans-66" transform="translate(1862.345703 0)"/>
     <use xlink:href="#DejaVuSans-69" transform="translate(1897.550781 0)"/>
     <use xlink:href="#DejaVuSans-6e" transform="translate(1925.333984 0)"/>
     <use xlink:href="#DejaVuSans-65" transform="translate(1988.712891 0)"/>
     <use xlink:href="#DejaVuSans-74" transform="translate(2050.236328 0)"/>
     <use xlink:href="#DejaVuSans-75" transform="translate(2089.445312 0)"/>
     <use xlink:href="#DejaVuSans-6e" transform="translate(2152.824219 0)"/>
     <use xlink:href="#DejaVuSans-65" transform="translate(2216.203125 0)"/>
     <use xlink:href="#DejaVuSans-64" transform="translate(2277.726562 0)"/>
     <use xlink:href="#DejaVuSans-2d" transform="translate(2341.203125 0)"/>
     <use xlink:href="#DejaVuSans-73" transform="translate(2377.287109 0)"/>
     <use xlink:href="#DejaVuSans-73" transform="translate(2429.386719 0)"/>
     <use xlink:href="#DejaVuSans-74" transform="translate(2481.486328 0)"/>
     <use xlink:href="#DejaVuSans-2d" transform="translate(2520.695312 0)"/>
     <use xlink:href="#DejaVuSans-32" transform="translate(2556.779297 0)"/>
     <use xlink:href="#DejaVuSans-2d" transform="translate(2620.402344 0)"/>
     <use xlink:href="#DejaVuSans-65" transform="translate(2656.486328 0)"/>
     <use xlink:href="#DejaVuSans-6e" transform="translate(2718.009766 0)"/>
     <use xlink:href="#DejaVuSans-67" transform="translate(2781.388672 0)"/>
     <use xlink:href="#DejaVuSans-6c" transform="translate(2844.865234 0)"/>
     <use xlink:href="#DejaVuSans-69" transform="translate(2872.648438 0)"/>
     <use xlink:href="#DejaVuSans-73" transform="translate(2900.431641 0)"/>
     <use xlink:href="#DejaVuSans-68" transform="translate(2952.53125 0)"/>
    </g>
   </g>
   <g id="PathCollection_9">
    <defs>
     <path id="m236b66ebb2" d="M 0 11.916496 
C 3.160292 11.916496 6.191571 10.660899 8.426235 8.426235 
C 10.660899 6.191571 11.916496 3.160292 11.916496 0 
C 11.916496 -3.160292 10.660899 -6.191571 8.426235 -8.426235 
C 6.191571 -10.660899 3.160292 -11.916496 0 -11.916496 
C -3.160292 -11.916496 -6.191571 -10.660899 -8.426235 -8.426235 
C -10.660899 -6.191571 -11.916496 -3.160292 -11.916496 0 
C -11.916496 3.160292 -10.660899 6.191571 -8.426235 8.426235 
C -6.191571 10.660899 -3.160292 11.916496 0 11.916496 
z
" style="stroke: #ffffff; stroke-width: 1.2"/>
    </defs>
    <g clip-path="url(#p477dba0201)">
     <use xlink:href="#m236b66ebb2" x="56.442663" y="424.902663" style="fill: #a0421c; stroke: #ffffff; stroke-width: 1.2"/>
    </g>
   </g>
   <g id="PathCollection_10">
    <defs>
     <path id="m046190fee0" d="M 0 12.247449 
C 3.248061 12.247449 6.363528 10.95698 8.660254 8.660254 
C 10.95698 6.363528 12.247449 3.248061 12.247449 0 
C 12.247449 -3.248061 10.95698 -6.363528 8.660254 -8.660254 
C 6.363528 -10.95698 3.248061 -12.247449 0 -12.247449 
C -3.248061 -12.247449 -6.363528 -10.95698 -8.660254 -8.660254 
C -10.95698 -6.363528 -12.247449 -3.248061 -12.247449 0 
C -12.247449 3.248061 -10.95698 6.363528 -8.660254 8.660254 
C -6.363528 10.95698 -3.248061 12.247449 0 12.247449 
z
" style="stroke: #ffffff; stroke-width: 1.2"/>
    </defs>
    <g clip-path="url(#p477dba0201)">
     <use xlink:href="#m046190fee0" x="456.86307" y="81.940696" style="fill: #a0421c; stroke: #ffffff; stroke-width: 1.2"/>
    </g>
   </g>
   <g id="legend_1">
    <g id="patch_7">
     <path d="M 322.742813 453.257969 
L 460.096875 453.257969 
Q 461.896875 453.257969 461.896875 451.457969 
L 461.896875 412.727031 
Q 461.896875 410.927031 460.096875 410.927031 
L 322.742813 410.927031 
Q 320.942813 410.927031 320.942813 412.727031 
L 320.942813 451.457969 
Q 320.942813 453.257969 322.742813 453.257969 
z
" style="fill: #ffffff; opacity: 0.95; stroke: #cccccc; stroke-linejoin: miter"/>
    </g>
    <g id="line2d_30">
     <path d="M 324.542813 418.215625 
L 333.542813 418.215625 
L 342.542813 418.215625 
" style="fill: none"/>
     <defs>
      <path id="m826fbb71ae" d="M 0 5 
C 1.326016 5 2.597899 4.473168 3.535534 3.535534 
C 4.473168 2.597899 5 1.326016 5 0 
C 5 -1.326016 4.473168 -2.597899 3.535534 -3.535534 
C 2.597899 -4.473168 1.326016 -5 0 -5 
C -1.326016 -5 -2.597899 -4.473168 -3.535534 -3.535534 
C -4.473168 -2.597899 -5 -1.326016 -5 0 
C -5 1.326016 -4.473168 2.597899 -3.535534 3.535534 
C -2.597899 4.473168 -1.326016 5 0 5 
z
" style="stroke: #ffffff"/>
     </defs>
     <g>
      <use xlink:href="#m826fbb71ae" x="333.542813" y="418.215625" style="fill: #a0421c; stroke: #ffffff"/>
     </g>
    </g>
    <g id="text_17">
     <!-- Bin fails Wilson criterion -->
     <g transform="translate(349.742813 421.365625) scale(0.09 -0.09)">
      <defs>
       <path id="DejaVuSans-42" d="M 1259 2228 
L 1259 519 
L 2272 519 
Q 2781 519 3026 730 
Q 3272 941 3272 1375 
Q 3272 1813 3026 2020 
Q 2781 2228 2272 2228 
L 1259 2228 
z
M 1259 4147 
L 1259 2741 
L 2194 2741 
Q 2656 2741 2882 2914 
Q 3109 3088 3109 3444 
Q 3109 3797 2882 3972 
Q 2656 4147 2194 4147 
L 1259 4147 
z
M 628 4666 
L 2241 4666 
Q 2963 4666 3353 4366 
Q 3744 4066 3744 3513 
Q 3744 3084 3544 2831 
Q 3344 2578 2956 2516 
Q 3422 2416 3680 2098 
Q 3938 1781 3938 1306 
Q 3938 681 3513 340 
Q 3088 0 2303 0 
L 628 0 
L 628 4666 
z
" transform="scale(0.015625)"/>
       <path id="DejaVuSans-57" d="M 213 4666 
L 850 4666 
L 1831 722 
L 2809 4666 
L 3519 4666 
L 4500 722 
L 5478 4666 
L 6119 4666 
L 4947 0 
L 4153 0 
L 3169 4050 
L 2175 0 
L 1381 0 
L 213 4666 
z
" transform="scale(0.015625)"/>
      </defs>
      <use xlink:href="#DejaVuSans-42"/>
      <use xlink:href="#DejaVuSans-69" transform="translate(68.603516 0)"/>
      <use xlink:href="#DejaVuSans-6e" transform="translate(96.386719 0)"/>
      <use xlink:href="#DejaVuSans-20" transform="translate(159.765625 0)"/>
      <use xlink:href="#DejaVuSans-66" transform="translate(191.552734 0)"/>
      <use xlink:href="#DejaVuSans-61" transform="translate(226.757812 0)"/>
      <use xlink:href="#DejaVuSans-69" transform="translate(288.037109 0)"/>
      <use xlink:href="#DejaVuSans-6c" transform="translate(315.820312 0)"/>
      <use xlink:href="#DejaVuSans-73" transform="translate(343.603516 0)"/>
      <use xlink:href="#DejaVuSans-20" transform="translate(395.703125 0)"/>
      <use xlink:href="#DejaVuSans-57" transform="translate(427.490234 0)"/>
      <use xlink:href="#DejaVuSans-69" transform="translate(524.117188 0)"/>
      <use xlink:href="#DejaVuSans-6c" transform="translate(551.900391 0)"/>
      <use xlink:href="#DejaVuSans-73" transform="translate(579.683594 0)"/>
      <use xlink:href="#DejaVuSans-6f" transform="translate(631.783203 0)"/>
      <use xlink:href="#DejaVuSans-6e" transform="translate(692.964844 0)"/>
      <use xlink:href="#DejaVuSans-20" transform="translate(756.34375 0)"/>
      <use xlink:href="#DejaVuSans-63" transform="translate(788.130859 0)"/>
      <use xlink:href="#DejaVuSans-72" transform="translate(843.111328 0)"/>
      <use xlink:href="#DejaVuSans-69" transform="translate(884.224609 0)"/>
      <use xlink:href="#DejaVuSans-74" transform="translate(912.007812 0)"/>
      <use xlink:href="#DejaVuSans-65" transform="translate(951.216797 0)"/>
      <use xlink:href="#DejaVuSans-72" transform="translate(1012.740234 0)"/>
      <use xlink:href="#DejaVuSans-69" transform="translate(1053.853516 0)"/>
      <use xlink:href="#DejaVuSans-6f" transform="translate(1081.636719 0)"/>
      <use xlink:href="#DejaVuSans-6e" transform="translate(1142.818359 0)"/>
     </g>
    </g>
    <g id="line2d_31">
     <path d="M 324.542813 431.425937 
L 333.542813 431.425937 
L 342.542813 431.425937 
" style="fill: none"/>
     <defs>
      <path id="md8b7e22573" d="M 0 3.5 
C 0.928211 3.5 1.81853 3.131218 2.474874 2.474874 
C 3.131218 1.81853 3.5 0.928211 3.5 0 
C 3.5 -0.928211 3.131218 -1.81853 2.474874 -2.474874 
C 1.81853 -3.131218 0.928211 -3.5 0 -3.5 
C -0.928211 -3.5 -1.81853 -3.131218 -2.474874 -2.474874 
C -3.131218 -1.81853 -3.5 -0.928211 -3.5 0 
C -3.5 0.928211 -3.131218 1.81853 -2.474874 2.474874 
C -1.81853 3.131218 -0.928211 3.5 0 3.5 
z
" style="stroke: #000000; stroke-opacity: 0"/>
     </defs>
     <g>
      <use xlink:href="#md8b7e22573" x="333.542813" y="431.425937" style="fill: #888888; fill-opacity: 0.45; stroke: #000000; stroke-opacity: 0"/>
     </g>
    </g>
    <g id="text_18">
     <!-- Bin excluded (n &lt; 30) -->
     <g transform="translate(349.742813 434.575937) scale(0.09 -0.09)">
      <defs>
       <path id="DejaVuSans-78" d="M 3513 3500 
L 2247 1797 
L 3578 0 
L 2900 0 
L 1881 1375 
L 863 0 
L 184 0 
L 1544 1831 
L 300 3500 
L 978 3500 
L 1906 2253 
L 2834 3500 
L 3513 3500 
z
" transform="scale(0.015625)"/>
       <path id="DejaVuSans-28" d="M 1984 4856 
Q 1566 4138 1362 3434 
Q 1159 2731 1159 2009 
Q 1159 1288 1364 580 
Q 1569 -128 1984 -844 
L 1484 -844 
Q 1016 -109 783 600 
Q 550 1309 550 2009 
Q 550 2706 781 3412 
Q 1013 4119 1484 4856 
L 1984 4856 
z
" transform="scale(0.015625)"/>
       <path id="DejaVuSans-3c" d="M 4684 3150 
L 1459 2003 
L 4684 863 
L 4684 294 
L 678 1747 
L 678 2266 
L 4684 3719 
L 4684 3150 
z
" transform="scale(0.015625)"/>
       <path id="DejaVuSans-33" d="M 2597 2516 
Q 3050 2419 3304 2112 
Q 3559 1806 3559 1356 
Q 3559 666 3084 287 
Q 2609 -91 1734 -91 
Q 1441 -91 1130 -33 
Q 819 25 488 141 
L 488 750 
Q 750 597 1062 519 
Q 1375 441 1716 441 
Q 2309 441 2620 675 
Q 2931 909 2931 1356 
Q 2931 1769 2642 2001 
Q 2353 2234 1838 2234 
L 1294 2234 
L 1294 2753 
L 1863 2753 
Q 2328 2753 2575 2939 
Q 2822 3125 2822 3475 
Q 2822 3834 2567 4026 
Q 2313 4219 1838 4219 
Q 1578 4219 1281 4162 
Q 984 4106 628 3988 
L 628 4550 
Q 988 4650 1302 4700 
Q 1616 4750 1894 4750 
Q 2613 4750 3031 4423 
Q 3450 4097 3450 3541 
Q 3450 3153 3228 2886 
Q 3006 2619 2597 2516 
z
" transform="scale(0.015625)"/>
       <path id="DejaVuSans-29" d="M 513 4856 
L 1013 4856 
Q 1481 4119 1714 3412 
Q 1947 2706 1947 2009 
Q 1947 1309 1714 600 
Q 1481 -109 1013 -844 
L 513 -844 
Q 928 -128 1133 580 
Q 1338 1288 1338 2009 
Q 1338 2731 1133 3434 
Q 928 4138 513 4856 
z
" transform="scale(0.015625)"/>
      </defs>
      <use xlink:href="#DejaVuSans-42"/>
      <use xlink:href="#DejaVuSans-69" transform="translate(68.603516 0)"/>
      <use xlink:href="#DejaVuSans-6e" transform="translate(96.386719 0)"/>
      <use xlink:href="#DejaVuSans-20" transform="translate(159.765625 0)"/>
      <use xlink:href="#DejaVuSans-65" transform="translate(191.552734 0)"/>
      <use xlink:href="#DejaVuSans-78" transform="translate(251.326172 0)"/>
      <use xlink:href="#DejaVuSans-63" transform="translate(308.755859 0)"/>
      <use xlink:href="#DejaVuSans-6c" transform="translate(363.736328 0)"/>
      <use xlink:href="#DejaVuSans-75" transform="translate(391.519531 0)"/>
      <use xlink:href="#DejaVuSans-64" transform="translate(454.898438 0)"/>
      <use xlink:href="#DejaVuSans-65" transform="translate(518.375 0)"/>
      <use xlink:href="#DejaVuSans-64" transform="translate(579.898438 0)"/>
      <use xlink:href="#DejaVuSans-20" transform="translate(643.375 0)"/>
      <use xlink:href="#DejaVuSans-28" transform="translate(675.162109 0)"/>
      <use xlink:href="#DejaVuSans-6e" transform="translate(714.175781 0)"/>
      <use xlink:href="#DejaVuSans-20" transform="translate(777.554688 0)"/>
      <use xlink:href="#DejaVuSans-3c" transform="translate(809.341797 0)"/>
      <use xlink:href="#DejaVuSans-20" transform="translate(893.130859 0)"/>
      <use xlink:href="#DejaVuSans-33" transform="translate(924.917969 0)"/>
      <use xlink:href="#DejaVuSans-30" transform="translate(988.541016 0)"/>
      <use xlink:href="#DejaVuSans-29" transform="translate(1052.164062 0)"/>
     </g>
    </g>
    <g id="line2d_32">
     <path d="M 324.542813 444.63625 
L 333.542813 444.63625 
L 342.542813 444.63625 
" style="fill: none; stroke-dasharray: 3.7,1.6; stroke-dashoffset: 0; stroke: #bbbbbb"/>
    </g>
    <g id="text_19">
     <!-- Perfect calibration -->
     <g transform="translate(349.742813 447.78625) scale(0.09 -0.09)">
      <use xlink:href="#DejaVuSans-50"/>
      <use xlink:href="#DejaVuSans-65" transform="translate(56.677734 0)"/>
      <use xlink:href="#DejaVuSans-72" transform="translate(118.201172 0)"/>
      <use xlink:href="#DejaVuSans-66" transform="translate(159.314453 0)"/>
      <use xlink:href="#DejaVuSans-65" transform="translate(194.519531 0)"/>
      <use xlink:href="#DejaVuSans-63" transform="translate(256.042969 0)"/>
      <use xlink:href="#DejaVuSans-74" transform="translate(311.023438 0)"/>
      <use xlink:href="#DejaVuSans-20" transform="translate(350.232422 0)"/>
      <use xlink:href="#DejaVuSans-63" transform="translate(382.019531 0)"/>
      <use xlink:href="#DejaVuSans-61" transform="translate(437 0)"/>
      <use xlink:href="#DejaVuSans-6c" transform="translate(498.279297 0)"/>
      <use xlink:href="#DejaVuSans-69" transform="translate(526.0625 0)"/>
      <use xlink:href="#DejaVuSans-62" transform="translate(553.845703 0)"/>
      <use xlink:href="#DejaVuSans-72" transform="translate(617.322266 0)"/>
      <use xlink:href="#DejaVuSans-61" transform="translate(658.435547 0)"/>
      <use xlink:href="#DejaVuSans-74" transform="translate(719.714844 0)"/>
      <use xlink:href="#DejaVuSans-69" transform="translate(758.923828 0)"/>
      <use xlink:href="#DejaVuSans-6f" transform="translate(786.707031 0)"/>
      <use xlink:href="#DejaVuSans-6e" transform="translate(847.888672 0)"/>
     </g>
    </g>
   </g>
  </g>
 </g>
 <defs>
  <clipPath id="p477dba0201">
   <rect x="45.716875" y="37.077969" width="420.68" height="420.68"/>
  </clipPath>
 </defs>
</svg>
